<svg width="81" height="81" viewBox="0 0 81 81" fill="none" xmlns="http://www.w3.org/2000/svg">
<circle cx="40.3333" cy="40.7971" r="40" fill="#F0BB78"/>
<path d="M51.8014 19.7652C51.1666 20.4 51.1666 21.4205 51.1666 23.4637V51.6304C51.1666 53.6735 51.1666 54.694 51.8014 55.3289C52.4363 55.9637 53.4568 55.9637 55.4999 55.9637C57.5431 55.9637 58.5636 55.9637 59.1984 55.3289C59.8333 54.694 59.8333 53.6735 59.8333 51.6304V23.4637C59.8333 21.4205 59.8333 20.4 59.1984 19.7652C58.5636 19.1304 57.5431 19.1304 55.4999 19.1304C53.4568 19.1304 52.4363 19.1304 51.8014 19.7652ZM35.9999 29.9637C35.9999 27.9205 35.9999 26.9 36.6348 26.2652C37.2696 25.6304 38.2901 25.6304 40.3333 25.6304C42.3764 25.6304 43.3969 25.6304 44.0318 26.2652C44.6666 26.9 44.6666 27.9205 44.6666 29.9637V51.6304C44.6666 53.6735 44.6666 54.694 44.0318 55.3289C43.3969 55.9637 42.3764 55.9637 40.3333 55.9637C38.2901 55.9637 37.2696 55.9637 36.6348 55.3289C35.9999 54.694 35.9999 53.6735 35.9999 51.6304V29.9637ZM21.4681 34.9319C20.8333 35.5667 20.8333 36.5872 20.8333 38.6304V51.6304C20.8333 53.6735 20.8333 54.694 21.4681 55.3289C22.1029 55.9637 23.1234 55.9637 25.1666 55.9637C27.2098 55.9637 28.2303 55.9637 28.8651 55.3289C29.4999 54.694 29.4999 53.6735 29.4999 51.6304V38.6304C29.4999 36.5872 29.4999 35.5667 28.8651 34.9319C28.2303 34.297 27.2098 34.297 25.1666 34.297C23.1234 34.297 22.1029 34.297 21.4681 34.9319ZM20.8333 60.8387C20.4023 60.8387 19.9889 61.0099 19.6842 61.3147C19.3795 61.6194 19.2083 62.0327 19.2083 62.4637C19.2083 62.8947 19.3795 63.308 19.6842 63.6128C19.9889 63.9175 20.4023 64.0887 20.8333 64.0887H59.8333C60.2642 64.0887 60.6776 63.9175 60.9823 63.6128C61.287 63.308 61.4583 62.8947 61.4583 62.4637C61.4583 62.0327 61.287 61.6194 60.9823 61.3147C60.6776 61.0099 60.2642 60.8387 59.8333 60.8387H20.8333Z" fill="white"/>
</svg>
