<svg width="15" height="14" viewBox="0 0 15 14" fill="none" xmlns="http://www.w3.org/2000/svg">
<path d="M14.3263 4.95213V3.58688H10.9132V0.173746H9.54797V3.58688H8.18271V0.173746H6.81746V3.58688H5.45221V0.173746H4.08696V3.58688H0.673828V4.95213H4.08696V6.31738H0.673828V7.68263H4.08696V9.04788H0.673828V10.4131H4.08696V13.8263H5.45221V10.4131H6.81746V13.8263H8.18271V10.4131H9.54797V13.8263H10.9132V10.4131H14.3263V9.04788H10.9132V7.68263H14.3263V6.31738H10.9132V4.95213H14.3263Z" fill="white"/>
<path d="M2.03857 2.90426V11.0958C2.03857 11.8467 2.65294 12.461 3.40383 12.461H11.5953C12.3462 12.461 12.9606 11.8467 12.9606 11.0958V2.90426C12.9606 2.15337 12.3462 1.53901 11.5953 1.53901H3.40383C2.65294 1.53901 2.03857 2.15337 2.03857 2.90426Z" fill="white"/>
<path d="M9.88874 9.38922H5.11036C4.73492 9.38922 4.42773 9.08204 4.42773 8.70659V5.29346C4.42773 4.91802 4.73492 4.61083 5.11036 4.61083H9.88874C10.2642 4.61083 10.5714 4.91802 10.5714 5.29346V8.70659C10.5714 9.08204 10.2642 9.38922 9.88874 9.38922Z" fill="white"/>
</svg>
