<svg width="81" height="81" viewBox="0 0 81 81" fill="none" xmlns="http://www.w3.org/2000/svg">
<circle cx="40.6667" cy="40.7971" r="40" fill="#F0BB78"/>
<path d="M49.6269 48.5477C51.9276 47.2689 51.6294 42.3414 48.9632 37.5339C47.8194 35.4639 46.4132 33.7877 45.0069 32.6158C43.3253 33.8636 41.2884 34.5404 39.1944 34.5471C37.0972 34.5424 35.0567 33.8655 33.3726 32.6158C31.9663 33.7877 30.5638 35.4658 29.4163 37.5339C26.7482 42.3396 26.4538 47.2689 28.7601 48.5477C29.7876 49.1327 30.8713 48.6939 31.9888 47.6177C31.7795 48.7772 31.6747 49.9532 31.6757 51.1314C31.6757 56.6402 33.8132 61.0914 36.4438 61.0914C38.0301 61.0914 38.8157 59.4696 39.1926 56.9889C39.5676 59.4527 40.3551 61.0914 41.9301 61.0914C44.5494 61.0914 46.7038 56.6383 46.7038 51.1314C46.7038 49.8939 46.5876 48.7127 46.3888 47.6196C47.5138 48.6977 48.5938 49.1439 49.6251 48.5514L49.6269 48.5477ZM39.1907 32.6721C40.2545 32.688 41.3108 32.4921 42.2982 32.0959C43.2857 31.6997 44.1844 31.1111 44.9422 30.3643C45.7 29.6174 46.3016 28.7274 46.7122 27.7459C47.1227 26.7643 47.334 25.711 47.3336 24.647C47.3332 23.5831 47.1213 22.5299 46.71 21.5486C46.2988 20.5674 45.6965 19.6777 44.9382 18.9315C44.1799 18.1852 43.2807 17.5972 42.293 17.2017C41.3053 16.8062 40.2489 16.6111 39.1851 16.6277C37.0787 16.6606 35.0698 17.5207 33.5921 19.0222C32.1145 20.5236 31.2866 22.546 31.2874 24.6526C31.2881 26.7593 32.1174 28.7811 33.5961 30.2815C35.0748 31.782 37.0843 32.6406 39.1907 32.6721ZM55.3044 37.7608C57.0178 37.7107 58.6442 36.9949 59.8384 35.7653C61.0327 34.5356 61.7007 32.889 61.7007 31.1749C61.7007 29.4608 61.0327 27.8141 59.8384 26.5845C58.6442 25.3548 57.0178 24.639 55.3044 24.5889C53.5572 24.5892 51.8817 25.2835 50.6464 26.5191C49.4111 27.7548 48.7173 29.4305 48.7175 31.1777C48.7178 32.9249 49.4121 34.6004 50.6477 35.8357C51.8834 37.071 53.5591 37.7648 55.3063 37.7646L55.3044 37.7608ZM63.3294 41.7546C62.3882 40.0521 61.2369 38.6758 60.0819 37.7139C58.7003 38.7376 57.0277 39.2928 55.3082 39.2983C53.8907 39.2983 52.5707 38.9102 51.4157 38.2671C52.3457 40.3164 52.9213 42.3921 53.0282 44.2483C53.2044 47.0908 52.3157 49.1983 50.5382 50.1827C50.1575 50.3926 49.7432 50.5347 49.3138 50.6027C49.2069 51.3377 49.1338 52.1027 49.1338 52.9089C49.1338 57.4333 50.8869 61.0877 53.0488 61.0877C54.3501 61.0877 54.9988 59.7564 55.3063 57.7202C55.6119 59.7452 56.2588 61.0877 57.5563 61.0877C59.7032 61.0877 61.4751 57.4314 61.4751 52.9127C61.4751 51.8946 61.3757 50.9252 61.2126 50.0252C62.1351 50.9121 63.0238 51.2777 63.8713 50.7902C65.7594 49.7402 65.5157 45.6939 63.3275 41.7527L63.3294 41.7546ZM23.0769 37.7608C24.3792 37.7601 25.6519 37.3732 26.7343 36.6492C27.8167 35.9252 28.6602 34.8965 29.158 33.6932C29.6558 32.4899 29.7857 31.166 29.5312 29.8888C29.2767 28.6117 28.6492 27.4387 27.7281 26.5182C26.8071 25.5976 25.6337 24.9708 24.3565 24.7171C23.0792 24.4633 21.7554 24.5939 20.5523 25.0924C19.3493 25.5909 18.3211 26.435 17.5977 27.5178C16.8743 28.6006 16.4882 29.8736 16.4882 31.1758C16.4887 32.9231 17.183 34.5987 18.4185 35.8342C19.654 37.0697 21.3296 37.7641 23.0769 37.7646V37.7608ZM27.8301 50.1771C24.8451 48.5177 24.5713 43.5696 26.9751 38.2633C25.787 38.938 24.4451 39.2951 23.0788 39.3002C21.2863 39.3002 19.6438 38.7002 18.2976 37.7139C17.1444 38.6739 15.9951 40.0502 15.0501 41.7508C12.8619 45.6958 12.6219 49.7421 14.5119 50.7883C15.3557 51.2721 16.2463 50.9102 17.1632 50.0271C16.9964 50.9793 16.9117 51.9441 16.9101 52.9108C16.9101 57.4333 18.6632 61.0858 20.8251 61.0858C22.1263 61.0858 22.7751 59.7546 23.0826 57.7202C23.3919 59.7452 24.0388 61.0877 25.3326 61.0877C27.4832 61.0877 29.2513 57.4314 29.2513 52.9127C29.2513 52.1008 29.1763 51.3339 29.0694 50.5989C28.6353 50.5313 28.2164 50.3878 27.8319 50.1752L27.8301 50.1771Z" fill="white"/>
</svg>
