<svg width="53" height="46" viewBox="0 0 53 46" fill="none" xmlns="http://www.w3.org/2000/svg">
<path d="M36.6269 32.5477C38.9276 31.2689 38.6294 26.3414 35.9632 21.5339C34.8194 19.4639 33.4132 17.7877 32.0069 16.6158C30.3253 17.8636 28.2884 18.5404 26.1944 18.5471C24.0972 18.5424 22.0567 17.8655 20.3726 16.6158C18.9663 17.7877 17.5638 19.4658 16.4163 21.5339C13.7482 26.3396 13.4538 31.2689 15.7601 32.5477C16.7876 33.1327 17.8713 32.6939 18.9888 31.6177C18.7795 32.7772 18.6747 33.9532 18.6757 35.1314C18.6757 40.6402 20.8132 45.0914 23.4438 45.0914C25.0301 45.0914 25.8157 43.4696 26.1926 40.9889C26.5676 43.4527 27.3551 45.0914 28.9301 45.0914C31.5494 45.0914 33.7038 40.6383 33.7038 35.1314C33.7038 33.8939 33.5876 32.7127 33.3888 31.6196C34.5138 32.6977 35.5938 33.1439 36.6251 32.5514L36.6269 32.5477ZM26.1907 16.6721C27.2545 16.688 28.3108 16.4921 29.2982 16.0959C30.2857 15.6997 31.1844 15.1111 31.9422 14.3643C32.7 13.6174 33.3016 12.7274 33.7122 11.7459C34.1227 10.7643 34.334 9.71095 34.3336 8.64702C34.3332 7.58309 34.1213 6.52986 33.71 5.54862C33.2988 4.56739 32.6965 3.67774 31.9382 2.93147C31.1799 2.18519 30.2807 1.59719 29.293 1.20168C28.3053 0.806173 27.2489 0.611057 26.1851 0.62769C24.0787 0.660623 22.0698 1.52068 20.5921 3.02215C19.1145 4.52362 18.2866 6.54602 18.2874 8.65265C18.2881 10.7593 19.1174 12.7811 20.5961 14.2815C22.0748 15.782 24.0843 16.6406 26.1907 16.6721ZM42.3044 21.7608C44.0178 21.7107 45.6442 20.9949 46.8384 19.7653C48.0327 18.5356 48.7007 16.889 48.7007 15.1749C48.7007 13.4608 48.0327 11.8141 46.8384 10.5845C45.6442 9.35485 44.0178 8.63902 42.3044 8.58894C40.5572 8.58919 38.8817 9.2835 37.6464 10.5191C36.4111 11.7548 35.7173 13.4305 35.7175 15.1777C35.7178 16.9249 36.4121 18.6004 37.6477 19.8357C38.8834 21.071 40.5591 21.7648 42.3063 21.7646L42.3044 21.7608ZM50.3294 25.7546C49.3882 24.0521 48.2369 22.6758 47.0819 21.7139C45.7003 22.7376 44.0277 23.2928 42.3082 23.2983C40.8907 23.2983 39.5707 22.9102 38.4157 22.2671C39.3457 24.3164 39.9213 26.3921 40.0282 28.2483C40.2044 31.0908 39.3157 33.1983 37.5382 34.1827C37.1575 34.3926 36.7432 34.5347 36.3138 34.6027C36.2069 35.3377 36.1338 36.1027 36.1338 36.9089C36.1338 41.4333 37.8869 45.0877 40.0488 45.0877C41.3501 45.0877 41.9988 43.7564 42.3063 41.7202C42.6119 43.7452 43.2588 45.0877 44.5563 45.0877C46.7032 45.0877 48.4751 41.4314 48.4751 36.9127C48.4751 35.8946 48.3757 34.9252 48.2126 34.0252C49.1351 34.9121 50.0238 35.2777 50.8713 34.7902C52.7594 33.7402 52.5157 29.6939 50.3275 25.7527L50.3294 25.7546ZM10.0769 21.7608C11.3792 21.7601 12.6519 21.3732 13.7343 20.6492C14.8167 19.9252 15.6602 18.8965 16.158 17.6932C16.6558 16.4899 16.7857 15.166 16.5312 13.8888C16.2767 12.6117 15.6492 11.4387 14.7281 10.5182C13.8071 9.59764 12.6337 8.97085 11.3565 8.71707C10.0792 8.46329 8.75537 8.59391 7.55234 9.09243C6.34931 9.59094 5.32109 10.435 4.59769 11.5178C3.87429 12.6006 3.48818 13.8736 3.48818 15.1758C3.48867 16.9231 4.183 18.5987 5.41853 19.8342C6.65405 21.0697 8.32963 21.7641 10.0769 21.7646V21.7608ZM14.8301 34.1771C11.8451 32.5177 11.5713 27.5696 13.9751 22.2633C12.787 22.938 11.4451 23.2951 10.0788 23.3002C8.2863 23.3002 6.6438 22.7002 5.29755 21.7139C4.14443 22.6739 2.99505 24.0502 2.05005 25.7508C-0.138073 29.6958 -0.378073 33.7421 1.51193 34.7883C2.35568 35.2721 3.2463 34.9102 4.16318 34.0271C3.99636 34.9793 3.91167 35.9441 3.91005 36.9108C3.91005 41.4333 5.66318 45.0858 7.82505 45.0858C9.1263 45.0858 9.77505 43.7546 10.0826 41.7202C10.3919 43.7452 11.0388 45.0877 12.3326 45.0877C14.4832 45.0877 16.2513 41.4314 16.2513 36.9127C16.2513 36.1008 16.1763 35.3339 16.0694 34.5989C15.6353 34.5313 15.2164 34.3878 14.8319 34.1752L14.8301 34.1771Z" fill="white"/>
</svg>
