<svg width="40" height="40" viewBox="0 0 40 40" fill="none" xmlns="http://www.w3.org/2000/svg">
<circle cx="20" cy="20" r="20" fill="#543A14"/>
<path d="M20.0002 9.33333C21.4147 9.33333 22.7712 9.89523 23.7714 10.8954C24.7716 11.8956 25.3335 13.2522 25.3335 14.6667C25.3335 16.0811 24.7716 17.4377 23.7714 18.4379C22.7712 19.4381 21.4147 20 20.0002 20C18.5857 20 17.2291 19.4381 16.2289 18.4379C15.2287 17.4377 14.6668 16.0811 14.6668 14.6667C14.6668 13.2522 15.2287 11.8956 16.2289 10.8954C17.2291 9.89523 18.5857 9.33333 20.0002 9.33333ZM20.0002 22.6667C25.8935 22.6667 30.6668 25.0533 30.6668 28V30.6667H9.3335V28C9.3335 25.0533 14.1068 22.6667 20.0002 22.6667Z" fill="white"/>
</svg>
