<svg width="80" height="81" viewBox="0 0 80 81" fill="none" xmlns="http://www.w3.org/2000/svg">
<circle cx="40" cy="40.7971" r="40" fill="#F0BB78"/>
<path d="M33.498 39.8752H38.3167C40.967 39.8752 43.5088 40.9224 45.3828 42.7864C47.2568 44.6505 48.3096 47.1786 48.3096 49.8148H32.7629L32.7651 52.0236H50.5303V49.8148C50.5233 47.4645 49.8406 45.1653 48.5628 43.1884H54.9716C57.0707 43.1878 59.1269 43.7791 60.9019 44.8937C62.6768 46.0083 64.0978 47.6005 65 49.4857C59.7482 56.3794 51.2453 60.8588 41.6477 60.8588C35.5165 60.8588 30.3224 59.5556 26.1032 57.2695V36.7188C28.8049 37.1037 31.3561 38.1927 33.498 39.8752ZM21.6619 34.3532C22.2058 34.3532 22.7308 34.5519 23.1373 34.9114C23.5437 35.2709 23.8034 35.7662 23.867 36.3035L23.8826 36.562V56.4412C23.8826 57.027 23.6486 57.5888 23.2322 58.0031C22.8157 58.4173 22.2509 58.65 21.6619 58.65H17.2206C16.6317 58.65 16.0669 58.4173 15.6504 58.0031C15.234 57.5888 15 57.027 15 56.4412V36.562C15 35.9762 15.234 35.4143 15.6504 35.0001C16.0669 34.5859 16.6317 34.3532 17.2206 34.3532H21.6619ZM43.0823 22.3704L43.8684 23.1545L44.6545 22.3726C45.1692 21.8562 45.7815 21.4461 46.456 21.1657C47.1306 20.8853 47.8542 20.7402 48.5853 20.7387C49.3164 20.7372 50.0406 20.8794 50.7163 21.157C51.392 21.4346 52.0059 21.8423 52.5228 22.3566C53.0397 22.8709 53.4493 23.4816 53.7283 24.1538C54.0072 24.826 54.1499 25.5464 54.1482 26.2735C54.1465 27.0007 54.0004 27.7204 53.7183 28.3913C53.4363 29.0622 53.0237 29.6711 52.5044 30.1829L43.8684 38.7708L35.2301 30.1785C34.7109 29.6665 34.2986 29.0575 34.0167 28.3866C33.7348 27.7156 33.5889 26.9959 33.5874 26.2687C33.5859 25.5415 33.7288 24.8211 34.0079 24.149C34.2871 23.4769 34.6969 22.8663 35.2139 22.3522C35.731 21.838 36.345 21.4305 37.0208 21.1531C37.6966 20.8756 38.4208 20.7337 39.1519 20.7354C39.883 20.7371 40.6066 20.8824 41.281 21.163C41.9555 21.4435 42.5676 21.8539 43.0823 22.3704Z" fill="white"/>
</svg>
