<svg width="50" height="41" viewBox="0 0 50 41" fill="none" xmlns="http://www.w3.org/2000/svg">
<path d="M18.498 19.8752H23.3167C25.967 19.8752 28.5088 20.9224 30.3828 22.7864C32.2568 24.6505 33.3096 27.1786 33.3096 29.8148H17.7629L17.7651 32.0236H35.5303V29.8148C35.5233 27.4645 34.8406 25.1653 33.5628 23.1884H39.9716C42.0707 23.1878 44.1269 23.7791 45.9019 24.8937C47.6768 26.0083 49.0978 27.6005 50 29.4857C44.7482 36.3794 36.2453 40.8588 26.6477 40.8588C20.5165 40.8588 15.3224 39.5556 11.1032 37.2695V16.7188C13.8049 17.1037 16.3561 18.1927 18.498 19.8752ZM6.66193 14.3532C7.20584 14.3532 7.73081 14.5519 8.13726 14.9114C8.54372 15.2709 8.80339 15.7662 8.86703 16.3035L8.88257 16.562V36.4412C8.88257 37.027 8.64861 37.5888 8.23216 38.0031C7.81571 38.4173 7.25088 38.65 6.66193 38.65H2.22064C1.63169 38.65 1.06686 38.4173 0.650411 38.0031C0.23396 37.5888 0 37.027 0 36.4412V16.562C0 15.9762 0.23396 15.4143 0.650411 15.0001C1.06686 14.5859 1.63169 14.3532 2.22064 14.3532H6.66193ZM28.0823 2.37039L28.8684 3.15452L29.6545 2.3726C30.1692 1.85623 30.7815 1.44607 31.456 1.16567C32.1306 0.885277 32.8542 0.74017 33.5853 0.738681C34.3164 0.737192 35.0406 0.879351 35.7163 1.157C36.392 1.43464 37.0059 1.8423 37.5228 2.35658C38.0397 2.87086 38.4493 3.48162 38.7283 4.1538C39.0072 4.82599 39.1499 5.54635 39.1482 6.27355C39.1465 7.00074 39.0004 7.72044 38.7183 8.39132C38.4363 9.0622 38.0237 9.67106 37.5044 10.1829L28.8684 18.7708L20.2301 10.1785C19.7109 9.6665 19.2986 9.05752 19.0167 8.38656C18.7348 7.7156 18.5889 6.99586 18.5874 6.26867C18.5859 5.54147 18.7288 4.82115 19.0079 4.14904C19.2871 3.47694 19.6969 2.86629 20.2139 2.35216C20.731 1.83803 21.345 1.43054 22.0208 1.15308C22.6966 0.875627 23.4208 0.733672 24.1519 0.735367C24.883 0.737061 25.6066 0.882371 26.281 1.16296C26.9555 1.44354 27.5676 1.85387 28.0823 2.37039Z" fill="white"/>
</svg>
