<svg width="19" height="15" viewBox="0 0 19 15" fill="none" xmlns="http://www.w3.org/2000/svg">
<path d="M7.07957 6.92879H8.81608C9.77115 6.92879 10.6871 7.30616 11.3624 7.9779C12.0378 8.64963 12.4172 9.56069 12.4172 10.5107H6.81469L6.81549 11.3066H13.2174V10.5107C13.2149 9.66372 12.9689 8.83517 12.5084 8.12275H14.8179C15.5743 8.12254 16.3153 8.33562 16.9549 8.73727C17.5946 9.13893 18.1066 9.7127 18.4318 10.3921C16.5392 12.8763 13.4751 14.4905 10.0164 14.4905C7.80698 14.4905 5.93522 14.0209 4.41477 13.1971V5.79134C5.38835 5.93006 6.30771 6.32249 7.07957 6.92879ZM2.81429 4.93886C3.0103 4.93888 3.19948 5.01046 3.34595 5.14001C3.49242 5.26956 3.586 5.44808 3.60893 5.6417L3.61453 5.73483V12.8986C3.61453 13.1097 3.53022 13.3121 3.38015 13.4614C3.23007 13.6107 3.02653 13.6946 2.81429 13.6946H1.21381C1.00158 13.6946 0.798033 13.6107 0.647959 13.4614C0.497885 13.3121 0.413574 13.1097 0.413574 12.8986V5.73483C0.413574 5.52372 0.497885 5.32127 0.647959 5.17199C0.798033 5.02272 1.00158 4.93886 1.21381 4.93886H2.81429ZM10.5334 0.620704L10.8167 0.903275L11.1 0.6215C11.2855 0.435416 11.5061 0.28761 11.7492 0.186566C11.9923 0.0855218 12.253 0.0332305 12.5165 0.032694C12.7799 0.0321575 13.0409 0.0833864 13.2844 0.18344C13.5279 0.283493 13.7492 0.4304 13.9354 0.615726C14.1217 0.801053 14.2693 1.02115 14.3698 1.26338C14.4704 1.50561 14.5218 1.7652 14.5212 2.02726C14.5206 2.28931 14.4679 2.54866 14.3663 2.79043C14.2646 3.03219 14.1159 3.2516 13.9288 3.43606L10.8167 6.5308L7.70375 3.43447C7.51667 3.24995 7.36807 3.0305 7.26649 2.78871C7.1649 2.54692 7.11233 2.28755 7.11179 2.0255C7.11125 1.76345 7.16275 1.50387 7.26334 1.26166C7.36393 1.01946 7.51163 0.799407 7.69795 0.614133C7.88427 0.428858 8.10554 0.282014 8.34907 0.182029C8.5926 0.0820444 8.85359 0.0308889 9.11704 0.0314995C9.3805 0.0321101 9.64125 0.0844747 9.8843 0.185587C10.1274 0.286699 10.3479 0.434568 10.5334 0.620704Z" fill="#543A14"/>
</svg>
