<svg width="102" height="141" viewBox="0 0 102 141" fill="none" xmlns="http://www.w3.org/2000/svg">
<path d="M30.8641 11.6498L33.4069 15.4568L35.3454 14.1621L32.8025 10.3551L33.9094 9.61577L36.4522 13.4228L38.3914 12.1275L35.8486 8.32049L36.9555 7.58118L39.4983 11.3882L43.3053 8.84535L44.0446 9.95221L40.2376 12.495L41.5323 14.4335L45.3393 11.8906L46.0786 12.9975L42.2716 15.5403L43.5669 17.4796L47.3739 14.9367L48.1132 16.0436L44.3062 18.5864L46.8491 22.3934L45.7422 23.1327L43.1994 19.3257L41.2601 20.621L43.803 24.428L42.6961 25.1673L40.1533 21.3603L38.2149 22.655L40.7577 26.4621L39.6508 27.2014L37.108 23.3944L33.301 25.9372L32.5617 24.8303L36.3687 22.2875L35.0734 20.3483L31.2664 22.8911L30.5271 21.7842L34.3341 19.2414L33.0394 17.303L29.2324 19.8458L28.4931 18.739L32.3001 16.1961L29.7573 12.3891L30.8641 11.6498Z" fill="#F0BB78" stroke="#543A14" stroke-width="0.5"/>
<path d="M29.805 14.5593L38.9417 8.45665C39.6643 7.97395 40.6518 8.17062 41.1346 8.89323L47.2373 18.0299C47.72 18.7526 47.5234 19.7401 46.8007 20.2228L37.664 26.3255C36.9414 26.8081 35.9538 26.6116 35.4711 25.8889L29.3685 16.7523C28.8859 16.0296 29.0825 15.0421 29.805 14.5593Z" fill="#F0BB78" stroke="#543A14" stroke-width="0.5"/>
<path d="M33.9977 16.7141L39.3274 13.1542C39.6313 12.9514 40.0474 13.0348 40.2503 13.3387L42.7926 17.1448C42.9956 17.4487 42.9132 17.865 42.6095 18.0681L37.2799 21.6279C36.9759 21.8309 36.5591 21.748 36.3561 21.444L33.8138 17.6378C33.6362 17.3718 33.6773 17.0196 33.8941 16.7997L33.9977 16.7141Z" fill="#F0BB78" stroke="#543A14" stroke-width="0.5"/>
<path d="M53.0755 0.874375L53.1869 0.88376L53.2941 0.904219L53.2951 0.904147L60.7435 2.78827L60.7436 2.78924C60.8771 2.82303 61.0017 2.88467 61.1085 2.96983L61.2094 3.06225C61.3037 3.16225 61.3748 3.28105 61.4192 3.41002L61.4545 3.54254L61.4696 3.65403L61.9179 9.71169L61.9205 9.79963C61.9174 9.97547 61.8667 10.1473 61.7731 10.2962L61.7227 10.3685C61.5793 10.5559 61.3718 10.6838 61.1403 10.7289L61.0123 10.7462L58.3545 10.9429L59.0007 19.6739C59.0362 20.1536 58.9119 20.6293 58.6505 21.0286L58.5306 21.1952C58.2303 21.5712 57.8152 21.8363 57.3517 21.9512L57.15 21.9906L56.98 22.0091L44.8715 22.9052L44.6663 22.9106C44.2574 22.9024 43.859 22.7789 43.5168 22.555L43.3502 22.4342C42.9742 22.134 42.7092 21.7195 42.5942 21.2563L42.5548 21.0545L42.5362 20.8836L41.8907 12.1613L39.2184 12.3591L39.1304 12.3617C38.9545 12.3586 38.7827 12.3071 38.6337 12.2134L38.5615 12.1629C38.3973 12.0373 38.2784 11.8631 38.2211 11.6662L38.2 11.5796L38.1839 11.4535L37.7366 5.40946C37.7264 5.27222 37.746 5.135 37.7929 5.00674L37.8483 4.88219C37.9346 4.72142 38.0646 4.58783 38.2234 4.498L38.335 4.4447L45.4172 1.48716C45.523 1.44302 45.6357 1.41827 45.7496 1.4136L45.8643 1.41491C45.9787 1.42384 46.0902 1.45332 46.1938 1.50117L46.2938 1.55547C46.3915 1.61548 46.4781 1.6917 46.5485 1.78143L46.6132 1.87554C46.6729 1.97364 46.7149 2.08132 46.7366 2.19347L46.7518 2.30594C46.7942 2.9127 47.0413 3.484 47.4487 3.92885L47.6326 4.11207C48.085 4.51891 48.6604 4.75793 49.2626 4.79441L49.5224 4.7977C50.2171 4.77237 50.8746 4.47766 51.3564 3.97651C51.778 3.53785 52.036 2.97068 52.0924 2.36996L52.1045 2.11054L52.104 2.10275L52.0938 1.8205L52.1019 1.71806L52.1298 1.57793L52.1627 1.48051L52.203 1.39037L52.2652 1.29079L52.3249 1.21097C52.3495 1.1837 52.3746 1.15791 52.4005 1.13389L52.4853 1.06298L52.5656 1.01004L52.6684 0.956407L52.7684 0.918648L52.8741 0.892216L52.9691 0.878335L53.0755 0.874375Z" fill="#F0BB78" stroke="#543A14" stroke-width="0.5"/>
<path d="M58.9676 19.9141L65.3361 23.1847L66.3251 21.2587L59.9567 17.9882L58.9676 19.9141ZM62.8219 14.7818C62.5001 14.6153 62.1633 14.5692 61.8223 14.6462L61.6764 14.6865C61.2876 14.8139 60.9928 15.0644 60.8036 15.4283C60.6136 15.794 60.582 16.181 60.7083 16.5738C60.8344 16.9661 61.0855 17.2608 61.4523 17.4466C61.7731 17.6113 62.1086 17.658 62.4492 17.5831L62.5955 17.5441C62.9867 17.4189 63.2811 17.166 63.4692 16.7983L63.5327 16.6597C63.6445 16.3811 63.6687 16.0931 63.6044 15.8018L63.5654 15.6555C63.4402 15.2659 63.1882 14.9716 62.8219 14.7818ZM67.2644 17.0633C66.9427 16.8968 66.6059 16.8507 66.2648 16.9276L66.119 16.968C65.7788 17.0795 65.5106 17.2852 65.3223 17.5787L65.2462 17.7098C65.0562 18.0755 65.0246 18.4625 65.1508 18.8553C65.277 19.2476 65.528 19.5423 65.8948 19.7281C66.2615 19.9163 66.6474 19.9506 67.0381 19.8256C67.4292 19.7003 67.7237 19.4475 67.9118 19.0798L67.9753 18.9412C68.087 18.6626 68.1112 18.3746 68.047 18.0833L68.008 17.937C67.8983 17.5958 67.6916 17.3274 67.3959 17.1386L67.2644 17.0633ZM57.44 16.6958L57.2176 16.5816C56.7286 16.3304 56.3851 15.9677 56.1799 15.4855L56.1006 15.2724C55.911 14.6825 55.9583 14.1149 56.2453 13.5561C56.4963 13.0676 56.8592 12.7245 57.3409 12.5193L57.5554 12.4395C58.1451 12.25 58.7121 12.2969 59.2707 12.5838L59.4931 12.698L60.3675 10.9953C60.5238 10.691 60.7514 10.4771 61.058 10.3476L61.1939 10.2967C61.5234 10.1912 61.836 10.2005 62.1418 10.3235L62.2727 10.383L64.7163 11.638L64.8305 11.4156C65.0817 10.9266 65.4445 10.583 65.9266 10.3779L66.1406 10.2989C66.7305 10.1094 67.2973 10.1563 67.856 10.4432C68.3448 10.6943 68.6885 11.0572 68.8937 11.5393L68.9726 11.7533C69.1621 12.3431 69.1152 12.91 68.8283 13.4686L68.7141 13.691L71.1578 14.946C71.462 15.1022 71.6756 15.3298 71.8055 15.6365L71.8564 15.7724C71.9624 16.1022 71.9533 16.4149 71.8296 16.7203L71.7705 16.8503L70.8957 18.5538L71.1181 18.668C71.6068 18.9191 71.9493 19.2826 72.1545 19.7646L72.2347 19.9781C72.4243 20.5679 72.3772 21.1349 72.0904 21.6935C71.8394 22.1824 71.4756 22.5255 70.9935 22.7307L70.7799 22.811C70.1902 23.0005 69.6236 22.9526 69.065 22.6658L68.8426 22.5516L67.2072 25.7363C67.0508 26.0408 66.8229 26.2548 66.5162 26.3848L66.3807 26.4349C66.0047 26.5561 65.65 26.5278 65.302 26.3486L56.4169 21.7856C56.1126 21.6294 55.8984 21.402 55.7687 21.096L55.7182 20.9592C55.5976 20.5835 55.6262 20.229 55.8045 19.8805L57.44 16.6958Z" fill="#F0BB78" stroke="#543A14" stroke-width="0.5"/>
<path d="M60.0751 39.2357C58.6244 39.2357 57.2596 38.4712 56.5214 37.248L51.002 28.193L45.4912 37.248C44.7444 38.4797 43.3796 39.2442 41.9289 39.2442C41.5427 39.2442 41.1564 39.1933 40.7873 39.0828L29.0275 35.753V50.873C29.0275 52.1217 29.8859 53.209 31.1048 53.5063L49.6629 58.1018C50.5385 58.3141 51.4569 58.3141 52.3239 58.1018L70.8992 53.5063C72.1181 53.2005 72.9765 52.1132 72.9765 50.873V35.753L61.2167 39.0743C60.8476 39.1848 60.4613 39.2357 60.0751 39.2357ZM78.3242 29.705L73.9035 20.9728C73.6374 20.4462 73.0623 20.1404 72.47 20.2168L51.002 22.9265L58.8733 35.8465C59.1995 36.3816 59.8519 36.6365 60.4613 36.4666L77.4486 31.6672C78.2984 31.4209 78.7104 30.4865 78.3242 29.705ZM28.1005 20.9728L23.6798 29.705C23.285 30.4865 23.7056 31.4209 24.5468 31.6587L41.5341 36.4581C42.1435 36.628 42.7959 36.3731 43.1221 35.838L51.002 22.9265L29.5254 20.2168C28.9331 20.1488 28.3666 20.4462 28.1005 20.9728Z" fill="#543A14"/>
<path d="M47.9197 8.09298L56.5458 9.62312C56.8752 9.6816 57.1308 9.8455 57.3249 10.1233C57.519 10.4011 57.5846 10.6972 57.5259 11.0258L55.4857 22.5269C55.4273 22.8564 55.2637 23.112 54.9865 23.3062C54.7093 23.5002 54.4129 23.5659 54.083 23.507L45.457 21.9768C45.1274 21.9184 44.8723 21.7549 44.6786 21.4777C44.485 21.2006 44.4188 20.9044 44.4769 20.5741L46.517 9.07301C46.5755 8.74375 46.7387 8.48829 47.0161 8.2947C47.2594 8.12502 47.5173 8.0537 47.7985 8.07743L47.9197 8.09298ZM50.0869 15.3447L50.4995 15.1878L52.3468 14.48L53.84 15.7803L54.1735 16.0696L55.1868 10.357L51.1002 9.63209L50.0869 15.3447Z" fill="#F0BB78" stroke="#543A14" stroke-width="0.5"/>
<path d="M17.4143 97.261L9.86225 87.341V97.261H4.39025V74.797H9.86225V84.653L17.3503 74.797H23.7823L15.0783 85.805L24.1023 97.261H17.4143ZM34.8308 97.517C33.0814 97.517 31.5028 97.1437 30.0948 96.397C28.7081 95.6503 27.6094 94.5837 26.7988 93.197C26.0094 91.8103 25.6148 90.189 25.6148 88.333C25.6148 86.4983 26.0201 84.8877 26.8307 83.501C27.6414 82.093 28.7508 81.0157 30.1588 80.269C31.5668 79.5223 33.1454 79.149 34.8948 79.149C36.6441 79.149 38.2228 79.5223 39.6308 80.269C41.0388 81.0157 42.1481 82.093 42.9588 83.501C43.7694 84.8877 44.1748 86.4983 44.1748 88.333C44.1748 90.1677 43.7588 91.789 42.9268 93.197C42.1161 94.5837 40.9961 95.6503 39.5668 96.397C38.1588 97.1437 36.5801 97.517 34.8308 97.517ZM34.8308 92.781C35.8761 92.781 36.7614 92.397 37.4868 91.629C38.2334 90.861 38.6068 89.7623 38.6068 88.333C38.6068 86.9037 38.2441 85.805 37.5188 85.037C36.8148 84.269 35.9401 83.885 34.8948 83.885C33.8281 83.885 32.9428 84.269 32.2388 85.037C31.5348 85.7837 31.1828 86.8823 31.1828 88.333C31.1828 89.7623 31.5241 90.861 32.2068 91.629C32.9108 92.397 33.7854 92.781 34.8308 92.781ZM57.0298 92.621V97.261H54.2458C52.2618 97.261 50.7151 96.781 49.6058 95.821C48.4964 94.8397 47.9418 93.2503 47.9418 91.053V83.949H45.7658V79.405H47.9418V75.053H53.4138V79.405H56.9978V83.949H53.4138V91.117C53.4138 91.6503 53.5418 92.0343 53.7978 92.269C54.0538 92.5037 54.4804 92.621 55.0778 92.621H57.0298ZM58.9898 88.301C58.9898 86.4663 59.3311 84.8557 60.0138 83.469C60.7178 82.0823 61.6671 81.0157 62.8618 80.269C64.0564 79.5223 65.3898 79.149 66.8618 79.149C68.1204 79.149 69.2191 79.405 70.1578 79.917C71.1178 80.429 71.8538 81.101 72.3658 81.933V79.405H77.8378V97.261H72.3658V94.733C71.8324 95.565 71.0858 96.237 70.1258 96.749C69.1871 97.261 68.0884 97.517 66.8298 97.517C65.3791 97.517 64.0564 97.1437 62.8618 96.397C61.6671 95.629 60.7178 94.5517 60.0138 93.165C59.3311 91.757 58.9898 90.1357 58.9898 88.301ZM72.3658 88.333C72.3658 86.9677 71.9818 85.8903 71.2138 85.101C70.4671 84.3117 69.5498 83.917 68.4618 83.917C67.3738 83.917 66.4458 84.3117 65.6778 85.101C64.9311 85.869 64.5578 86.9357 64.5578 88.301C64.5578 89.6663 64.9311 90.7543 65.6778 91.565C66.4458 92.3543 67.3738 92.749 68.4618 92.749C69.5498 92.749 70.4671 92.3543 71.2138 91.565C71.9818 90.7757 72.3658 89.6983 72.3658 88.333ZM92.7085 97.261L87.2685 89.773V97.261H81.7965V73.581H87.2685V86.669L92.6765 79.405H99.4285L92.0045 88.365L99.4925 97.261H92.7085Z" fill="#543A14"/>
<path d="M19.1821 112.029C19.1821 113.33 18.8835 114.525 18.2861 115.613C17.6888 116.68 16.7715 117.544 15.5341 118.205C14.2968 118.866 12.7608 119.197 10.9261 119.197H7.53413V127.261H2.06213V104.797H10.9261C12.7181 104.797 14.2328 105.106 15.4701 105.725C16.7075 106.344 17.6355 107.197 18.2541 108.285C18.8728 109.373 19.1821 110.621 19.1821 112.029ZM10.5101 114.845C11.5555 114.845 12.3341 114.6 12.8461 114.109C13.3581 113.618 13.6141 112.925 13.6141 112.029C13.6141 111.133 13.3581 110.44 12.8461 109.949C12.3341 109.458 11.5555 109.213 10.5101 109.213H7.53413V114.845H10.5101ZM38.8629 118.045C38.8629 118.557 38.8309 119.09 38.7669 119.645H26.3829C26.4682 120.754 26.8202 121.608 27.4389 122.205C28.0789 122.781 28.8575 123.069 29.7749 123.069C31.1402 123.069 32.0895 122.493 32.6229 121.341H38.4469C38.1482 122.514 37.6042 123.57 36.8149 124.509C36.0469 125.448 35.0762 126.184 33.9029 126.717C32.7295 127.25 31.4175 127.517 29.9669 127.517C28.2175 127.517 26.6602 127.144 25.2949 126.397C23.9295 125.65 22.8629 124.584 22.0949 123.197C21.3269 121.81 20.9429 120.189 20.9429 118.333C20.9429 116.477 21.3162 114.856 22.0629 113.469C22.8309 112.082 23.8975 111.016 25.2629 110.269C26.6282 109.522 28.1962 109.149 29.9669 109.149C31.6949 109.149 33.2309 109.512 34.5749 110.237C35.9189 110.962 36.9642 111.997 37.7109 113.341C38.4789 114.685 38.8629 116.253 38.8629 118.045ZM33.2629 116.605C33.2629 115.666 32.9429 114.92 32.3029 114.365C31.6629 113.81 30.8629 113.533 29.9029 113.533C28.9855 113.533 28.2069 113.8 27.5669 114.333C26.9482 114.866 26.5642 115.624 26.4149 116.605H33.2629ZM40.6616 118.301C40.6616 116.466 41.003 114.856 41.6856 113.469C42.3896 112.082 43.339 111.016 44.5336 110.269C45.7283 109.522 47.0616 109.149 48.5336 109.149C49.707 109.149 50.7736 109.394 51.7336 109.885C52.715 110.376 53.483 111.037 54.0376 111.869V103.581H59.5096V127.261H54.0376V124.701C53.5256 125.554 52.7896 126.237 51.8296 126.749C50.891 127.261 49.7923 127.517 48.5336 127.517C47.0616 127.517 45.7283 127.144 44.5336 126.397C43.339 125.629 42.3896 124.552 41.6856 123.165C41.003 121.757 40.6616 120.136 40.6616 118.301ZM54.0376 118.333C54.0376 116.968 53.6536 115.89 52.8856 115.101C52.139 114.312 51.2216 113.917 50.1336 113.917C49.0456 113.917 48.1176 114.312 47.3496 115.101C46.603 115.869 46.2296 116.936 46.2296 118.301C46.2296 119.666 46.603 120.754 47.3496 121.565C48.1176 122.354 49.0456 122.749 50.1336 122.749C51.2216 122.749 52.139 122.354 52.8856 121.565C53.6536 120.776 54.0376 119.698 54.0376 118.333ZM81.1004 109.405V127.261H75.6284V124.829C75.0737 125.618 74.3164 126.258 73.3564 126.749C72.4177 127.218 71.3724 127.453 70.2204 127.453C68.855 127.453 67.6497 127.154 66.6044 126.557C65.559 125.938 64.7484 125.053 64.1724 123.901C63.5964 122.749 63.3084 121.394 63.3084 119.837V109.405H68.7484V119.101C68.7484 120.296 69.0577 121.224 69.6764 121.885C70.295 122.546 71.127 122.877 72.1724 122.877C73.239 122.877 74.0817 122.546 74.7004 121.885C75.319 121.224 75.6284 120.296 75.6284 119.101V109.405H81.1004ZM90.5029 103.581V127.261H85.0309V103.581H90.5029ZM97.2204 107.549C96.2604 107.549 95.471 107.272 94.8524 106.717C94.255 106.141 93.9564 105.437 93.9564 104.605C93.9564 103.752 94.255 103.048 94.8524 102.493C95.471 101.917 96.2604 101.629 97.2204 101.629C98.159 101.629 98.927 101.917 99.5244 102.493C100.143 103.048 100.452 103.752 100.452 104.605C100.452 105.437 100.143 106.141 99.5244 106.717C98.927 107.272 98.159 107.549 97.2204 107.549ZM99.9404 109.405V127.261H94.4684V109.405H99.9404Z" fill="#543A14"/>
</svg>
