<svg width="103" height="40" viewBox="0 0 103 40" fill="none" xmlns="http://www.w3.org/2000/svg">
<path d="M4.96597 8.88074L6.69573 11.4704L8.14771 10.5006L6.41796 7.91091L7.03757 7.49705L8.76733 10.0868L10.2193 9.11692L8.48956 6.52722L9.10917 6.11336L10.8389 8.70306L13.4286 6.97331L13.8425 7.59292L11.2528 9.32267L12.2226 10.7747L14.8123 9.0449L15.2262 9.66452L12.6365 11.3943L13.6063 12.8463L16.196 11.1165L16.6099 11.7361L14.0202 13.4659L15.7499 16.0556L15.1303 16.4694L13.4006 13.8797L11.9486 14.8496L13.6783 17.4393L13.0587 17.8531L11.329 15.2634L9.87698 16.2333L11.6067 18.823L10.9871 19.2368L9.25736 16.6471L6.66766 18.3769L6.2538 17.7573L8.8435 16.0275L7.87367 14.5755L5.28397 16.3053L4.87011 15.6857L7.45981 13.9559L6.48998 12.5039L3.90027 14.2337L3.48641 13.6141L6.07612 11.8843L4.34636 9.2946L4.96597 8.88074Z" fill="#F0BB78" stroke="#543A14" stroke-width="0.5"/>
<path d="M4.31276 10.815L10.5276 6.66389C10.9824 6.36034 11.6046 6.48471 11.9083 6.93948L16.0594 13.1543C16.3629 13.609 16.2391 14.2307 15.7846 14.5345L9.56982 18.6856C9.11505 18.9893 8.4927 18.8659 8.18878 18.4113L4.0377 12.1965L3.98535 12.1094C3.75011 11.6651 3.88623 11.0999 4.31276 10.815Z" fill="#F0BB78" stroke="#543A14" stroke-width="0.5"/>
<path d="M7.1638 12.281L10.7889 9.85966C10.9589 9.74609 11.1927 9.79264 11.3063 9.96267L13.0361 12.5524C13.1493 12.7224 13.1024 12.9555 12.9325 13.069L9.30741 15.4903C9.1375 15.6038 8.9042 15.5578 8.79054 15.3881L7.06079 12.7984C6.94721 12.6284 6.99376 12.3946 7.1638 12.281Z" fill="#F0BB78" stroke="#543A14" stroke-width="0.5"/>
<path d="M15.186 1.88792C15.2543 1.89326 15.3209 1.91043 15.3827 1.93897L15.4429 1.97075C15.5206 2.01849 15.5858 2.08443 15.6333 2.1623C15.669 2.22093 15.6941 2.28565 15.7071 2.35268L15.716 2.41959C15.7461 2.85027 15.9215 3.25598 16.2106 3.57178L16.3416 3.70211C16.6628 3.99085 17.0712 4.16044 17.4987 4.18639L17.683 4.18842C18.1147 4.17273 18.5263 4.0105 18.8517 3.73178L18.9862 3.60529C19.2855 3.29386 19.4689 2.89138 19.509 2.46497L19.5169 2.28029L19.5163 2.2725L19.5093 2.08501L19.5151 2.01896L19.5325 1.9364L19.556 1.87003L19.5736 1.82956L19.613 1.76691L19.6469 1.72132C19.6776 1.68747 19.709 1.65739 19.7421 1.63202L19.7945 1.59876L19.8501 1.57016L19.9111 1.54705L19.9842 1.52891L20.0336 1.52231L20.0893 1.52015L20.1621 1.52553L20.2426 1.54112L25.2941 2.82022C25.3737 2.84037 25.4479 2.87679 25.5116 2.9275L25.5715 2.9828C25.6446 3.06026 25.6948 3.15683 25.7165 3.26095L25.729 3.35109L26.0329 7.45705L26.0309 7.56198C26.0233 7.63149 26.003 7.69896 25.9712 7.76126L25.9161 7.84956C25.8306 7.9613 25.7067 8.03718 25.5686 8.06426L25.5008 8.07417L23.6027 8.21465L24.0481 14.2333L24.052 14.3653C24.0468 14.6287 23.9672 14.8854 23.8228 15.1059L23.7455 15.2124C23.5259 15.4875 23.2107 15.6697 22.8629 15.7233L22.7531 15.7354L14.511 16.3453L14.3791 16.3492C14.1158 16.344 13.8589 16.2653 13.6385 16.121L13.5319 16.0427C13.2572 15.8234 13.0741 15.5093 13.0202 15.1621L13.0083 15.0416L12.5636 9.03162L10.6654 9.17209L10.5606 9.17104C10.4914 9.16348 10.4243 9.14281 10.3623 9.11129L10.2729 9.05524C10.1888 8.99083 10.1243 8.90506 10.0862 8.8076L10.0572 8.70693L10.0472 8.62541L9.74335 4.51945L9.74314 4.43721C9.74684 4.38319 9.75793 4.32991 9.77648 4.27904L9.8101 4.20409C9.86131 4.10865 9.93807 4.02882 10.0321 3.97517L10.104 3.94145L14.9189 1.93021C14.9821 1.90386 15.0494 1.88895 15.1174 1.88615L15.186 1.88792Z" fill="#F0BB78" stroke="#543A14" stroke-width="0.5"/>
<path d="M23.9974 14.4261L28.4721 16.7241L29.218 15.2716L24.7433 12.9736L23.9974 14.4261ZM26.7637 10.8287C26.4949 10.6895 26.209 10.665 25.9224 10.7589C25.6737 10.8404 25.4768 10.9922 25.3389 11.2068L25.2837 11.3036C25.162 11.5379 25.1285 11.7854 25.1841 12.0363L25.2126 12.1432C25.305 12.4307 25.4908 12.6494 25.7599 12.7854L25.7595 12.7841C26.0274 12.9215 26.3114 12.9458 26.5973 12.8543C26.848 12.774 27.0459 12.6223 27.1835 12.4055L27.2391 12.3079C27.3761 12.0398 27.401 11.7555 27.3093 11.47C27.2175 11.1844 27.0314 10.9672 26.7637 10.8287ZM29.786 12.3807C29.5171 12.2416 29.2312 12.217 28.9446 12.311C28.6602 12.4042 28.4433 12.5892 28.305 12.8552C28.1661 13.1228 28.1426 13.408 28.2348 13.6952C28.3272 13.9827 28.513 14.2015 28.7822 14.3375L28.7817 14.3362C29.016 14.4563 29.2627 14.4905 29.5122 14.4358L29.6195 14.4064C29.906 14.3146 30.1239 14.1287 30.2614 13.8599C30.3984 13.5918 30.4224 13.3071 30.3307 13.0217C30.2504 12.772 30.0982 12.575 29.8823 12.4368L29.786 12.3807ZM23.1736 12.1675L22.9512 12.0533C22.6353 11.891 22.4148 11.6582 22.2827 11.3477L22.2309 11.2091C22.1085 10.8284 22.139 10.4647 22.3245 10.1034C22.4869 9.78708 22.7204 9.56665 23.0314 9.43448L23.1686 9.38311C23.5494 9.26075 23.9135 9.29037 24.2748 9.47584L24.4972 9.59005L25.1285 8.36083C25.2262 8.17055 25.367 8.03793 25.5587 7.9571L25.6442 7.92527C25.8507 7.85911 26.0446 7.8644 26.2354 7.94125L26.3171 7.97882L28.0501 8.86883L28.1644 8.64644C28.3267 8.33043 28.5601 8.11054 28.8708 7.9784L29.0094 7.92661C29.39 7.8044 29.7539 7.83468 30.1151 8.0202C30.4311 8.1826 30.651 8.41589 30.7832 8.72665L30.8354 8.86436C30.9577 9.24507 30.9273 9.6088 30.7418 9.97009L30.6276 10.1925L32.3607 11.0825C32.551 11.1802 32.6842 11.3212 32.7653 11.5131L32.7962 11.5982C32.8722 11.8345 32.8544 12.0542 32.7427 12.2711L32.1114 13.5003L32.3338 13.6145C32.65 13.777 32.8706 14.0105 33.0027 14.3214L33.0536 14.4596C33.1759 14.8403 33.1456 15.204 32.96 15.5653C32.7976 15.8814 32.5649 16.1025 32.254 16.2346L32.1159 16.2856C31.7351 16.4079 31.3715 16.3775 31.0101 16.192L30.7878 16.0778L29.639 18.3147C29.5272 18.5323 29.3588 18.6751 29.1228 18.7511C28.8875 18.8269 28.6687 18.809 28.4513 18.6971L22.4068 15.593C22.2164 15.4952 22.084 15.3543 22.0031 15.1628L21.9712 15.0773C21.8957 14.8419 21.9131 14.6225 22.0248 14.4044L23.1736 12.1675Z" fill="#F0BB78" stroke="#543A14" stroke-width="0.5"/>
<path d="M24.8584 26.2134C23.8716 26.2134 22.9433 25.6934 22.4411 24.8613L18.6867 18.702L14.9382 24.8613C14.4302 25.6991 13.5019 26.2192 12.5151 26.2192C12.2523 26.2192 11.9896 26.1845 11.7385 26.1094L3.73933 23.8444V34.1293C3.73933 34.9786 4.32321 35.7182 5.15232 35.9204L17.7759 39.0463C18.3714 39.1908 18.9962 39.1908 19.5859 39.0463L32.2212 35.9204C33.0503 35.7124 33.6342 34.9728 33.6342 34.1293V23.8444L25.635 26.1036C25.3839 26.1787 25.1211 26.2134 24.8584 26.2134ZM37.2718 19.7304L34.2648 13.7907C34.0837 13.4324 33.6925 13.2244 33.2897 13.2764L18.6867 15.1196L24.041 23.908C24.2628 24.272 24.7066 24.4453 25.1211 24.3297L36.6762 21.0652C37.2542 20.8976 37.5345 20.262 37.2718 19.7304ZM3.10873 13.7907L0.101732 19.7304C-0.166855 20.262 0.119248 20.8976 0.691454 21.0594L12.2465 24.324C12.6611 24.4395 13.1048 24.2662 13.3267 23.9022L18.6867 15.1196L4.07798 13.2764C3.6751 13.2302 3.28974 13.4324 3.10873 13.7907Z" fill="#543A14"/>
<path d="M16.5766 6.42902L22.444 7.4698C22.5962 7.49681 22.7216 7.55944 22.8255 7.66147L22.9221 7.77679C23.0421 7.94858 23.0821 8.12885 23.0459 8.33135L21.6582 16.1545C21.6312 16.3069 21.5684 16.4322 21.4665 16.5361L21.351 16.6336C21.1799 16.7533 20.9998 16.7928 20.7966 16.7565L14.9293 15.7157C14.7768 15.6886 14.6514 15.6259 14.5477 15.524L14.4511 15.4087C14.3316 15.2376 14.2915 15.0577 14.3273 14.8541L15.715 7.03096C15.7421 6.87861 15.8046 6.7531 15.9067 6.64939L16.022 6.55282C16.1509 6.46294 16.2846 6.41839 16.429 6.41673L16.5766 6.42902ZM17.9606 11.4084L18.3734 11.2506L19.5854 10.7862L20.5648 11.6393L20.8981 11.9295L21.6261 7.82559L18.6885 7.30451L17.9606 11.4084Z" fill="#F0BB78" stroke="#543A14" stroke-width="0.5"/>
<path d="M55.3779 25.3102C55.3779 26.0709 55.2033 26.7692 54.8542 27.4051C54.505 28.0286 53.9688 28.5337 53.2456 28.9202C52.5223 29.3068 51.6245 29.5001 50.5521 29.5001H48.5694V34.2137H45.3708V21.0829H50.5521C51.5996 21.0829 52.4849 21.2637 53.2082 21.6254C53.9314 21.987 54.4739 22.4858 54.8355 23.1217C55.1971 23.7577 55.3779 24.4872 55.3779 25.3102ZM50.3089 26.9562C50.9199 26.9562 51.3751 26.8128 51.6744 26.526C51.9736 26.2392 52.1233 25.8339 52.1233 25.3102C52.1233 24.7865 51.9736 24.3812 51.6744 24.0944C51.3751 23.8076 50.9199 23.6642 50.3089 23.6642H48.5694V26.9562H50.3089Z" fill="#543A14"/>
<path d="M66.8818 28.8267C66.8818 29.126 66.8631 29.4377 66.8257 29.7619H59.5869C59.6368 30.4104 59.8426 30.9092 60.2042 31.2583C60.5783 31.595 61.0335 31.7634 61.5697 31.7634C62.3677 31.7634 62.9226 31.4267 63.2344 30.7533H66.6387C66.4641 31.4391 66.1461 32.0564 65.6847 32.6051C65.2358 33.1538 64.6684 33.584 63.9826 33.8957C63.2967 34.2075 62.5298 34.3633 61.6819 34.3633C60.6594 34.3633 59.7491 34.1451 58.951 33.7087C58.1529 33.2722 57.5294 32.6487 57.0805 31.8382C56.6316 31.0276 56.4071 30.0799 56.4071 28.9951C56.4071 27.9102 56.6253 26.9625 57.0618 26.1519C57.5107 25.3414 58.1342 24.7179 58.9323 24.2814C59.7303 23.845 60.6469 23.6268 61.6819 23.6268C62.6919 23.6268 63.5898 23.8388 64.3754 24.2627C65.161 24.6867 65.772 25.2915 66.2084 26.0771C66.6574 26.8627 66.8818 27.7792 66.8818 28.8267ZM63.6085 27.985C63.6085 27.4363 63.4214 26.9999 63.0473 26.6757C62.6732 26.3514 62.2056 26.1893 61.6445 26.1893C61.1083 26.1893 60.6531 26.3452 60.279 26.657C59.9174 26.9687 59.6929 27.4114 59.6056 27.985H63.6085Z" fill="#543A14"/>
<path d="M67.9332 28.9763C67.9332 27.9039 68.1328 26.9625 68.5318 26.1519C68.9433 25.3414 69.4982 24.7179 70.1965 24.2814C70.8948 23.845 71.6742 23.6268 72.5346 23.6268C73.2205 23.6268 73.844 23.7702 74.4051 24.057C74.9787 24.3438 75.4276 24.7304 75.7518 25.2167V20.3721H78.9504V34.2137H75.7518V32.7173C75.4526 33.2161 75.0224 33.6151 74.4612 33.9144C73.9125 34.2137 73.2703 34.3633 72.5346 34.3633C71.6742 34.3633 70.8948 34.1451 70.1965 33.7087C69.4982 33.2598 68.9433 32.63 68.5318 31.8195C68.1328 30.9965 67.9332 30.0488 67.9332 28.9763ZM75.7518 28.9951C75.7518 28.197 75.5274 27.5673 75.0785 27.1059C74.642 26.6445 74.1058 26.4138 73.4699 26.4138C72.8339 26.4138 72.2915 26.6445 71.8425 27.1059C71.4061 27.5548 71.1879 28.1783 71.1879 28.9763C71.1879 29.7744 71.4061 30.4104 71.8425 30.8842C72.2915 31.3456 72.8339 31.5763 73.4699 31.5763C74.1058 31.5763 74.642 31.3456 75.0785 30.8842C75.5274 30.4229 75.7518 29.7931 75.7518 28.9951Z" fill="#543A14"/>
<path d="M91.5707 23.7764V34.2137H88.3722V32.7921C88.048 33.2535 87.6053 33.6276 87.0441 33.9144C86.4955 34.1888 85.8844 34.3259 85.2111 34.3259C84.413 34.3259 83.7085 34.1513 83.0974 33.8022C82.4864 33.4406 82.0126 32.9231 81.6759 32.2497C81.3392 31.5763 81.1708 30.7845 81.1708 29.8742V23.7764H84.3507V29.444C84.3507 30.1423 84.5315 30.6847 84.8931 31.0713C85.2547 31.4579 85.741 31.6511 86.3521 31.6511C86.9756 31.6511 87.4681 31.4579 87.8298 31.0713C88.1914 30.6847 88.3722 30.1423 88.3722 29.444V23.7764H91.5707Z" fill="#543A14"/>
<path d="M97.0667 20.3721V34.2137H93.8682V20.3721H97.0667Z" fill="#543A14"/>
<path d="M100.993 22.6915C100.432 22.6915 99.9707 22.5294 99.6091 22.2052C99.2599 21.8685 99.0854 21.457 99.0854 20.9707C99.0854 20.4719 99.2599 20.0604 99.6091 19.7362C99.9707 19.3995 100.432 19.2311 100.993 19.2311C101.542 19.2311 101.991 19.3995 102.34 19.7362C102.702 20.0604 102.882 20.4719 102.882 20.9707C102.882 21.457 102.702 21.8685 102.34 22.2052C101.991 22.5294 101.542 22.6915 100.993 22.6915ZM102.583 23.7764V34.2137H99.3846V23.7764H102.583Z" fill="#543A14"/>
<path d="M52.9837 19.4782L48.5694 13.6797V19.4782H45.3708V6.34744H48.5694V12.1085L52.9463 6.34744H56.706L51.6183 12.7819L56.893 19.4782H52.9837Z" fill="#543A14"/>
<path d="M63.1641 19.6279C62.1416 19.6279 61.2188 19.4096 60.3958 18.9732C59.5852 18.5367 58.943 17.9132 58.4692 17.1027C58.0078 16.2922 57.7771 15.3445 57.7771 14.2596C57.7771 13.1872 58.014 12.2457 58.4879 11.4351C58.9617 10.6121 59.6102 9.98241 60.4332 9.54596C61.2562 9.10952 62.179 8.89129 63.2015 8.89129C64.224 8.89129 65.1468 9.10952 65.9698 9.54596C66.7928 9.98241 67.4413 10.6121 67.9151 11.4351C68.389 12.2457 68.6259 13.1872 68.6259 14.2596C68.6259 15.332 68.3827 16.2797 67.8964 17.1027C67.4226 17.9132 66.7679 18.5367 65.9324 18.9732C65.1094 19.4096 64.1866 19.6279 63.1641 19.6279ZM63.1641 16.8595C63.7751 16.8595 64.2926 16.6351 64.7166 16.1862C65.153 15.7373 65.3713 15.0951 65.3713 14.2596C65.3713 13.4241 65.1593 12.7819 64.7353 12.333C64.3238 11.8841 63.8125 11.6596 63.2015 11.6596C62.578 11.6596 62.0605 11.8841 61.649 12.333C61.2375 12.7694 61.0317 13.4116 61.0317 14.2596C61.0317 15.0951 61.2313 15.7373 61.6303 16.1862C62.0418 16.6351 62.5531 16.8595 63.1641 16.8595Z" fill="#543A14"/>
<path d="M76.14 16.766V19.4782H74.5127C73.353 19.4782 72.4489 19.1976 71.8005 18.6365C71.152 18.0629 70.8278 17.1339 70.8278 15.8495V11.697H69.5559V9.04093H70.8278V6.49708H74.0263V9.04093H76.1213V11.697H74.0263V15.8869C74.0263 16.1986 74.1011 16.4231 74.2508 16.5603C74.4004 16.6974 74.6498 16.766 74.999 16.766H76.14Z" fill="#543A14"/>
<path d="M77.2856 14.2409C77.2856 13.1685 77.4852 12.227 77.8842 11.4164C78.2957 10.6059 78.8506 9.98241 79.5489 9.54596C80.2472 9.10952 81.0266 8.89129 81.887 8.89129C82.6227 8.89129 83.2649 9.04093 83.8136 9.34021C84.3748 9.63949 84.805 10.0323 85.1043 10.5186V9.04093H88.3028V19.4782H85.1043V18.0005C84.7925 18.4869 84.3561 18.8797 83.7949 19.1789C83.2462 19.4782 82.604 19.6279 81.8683 19.6279C81.0204 19.6279 80.2472 19.4096 79.5489 18.9732C78.8506 18.5243 78.2957 17.8945 77.8842 17.084C77.4852 16.261 77.2856 15.3133 77.2856 14.2409ZM85.1043 14.2596C85.1043 13.4615 84.8798 12.8318 84.4309 12.3704C83.9944 11.909 83.4582 11.6783 82.8223 11.6783C82.1863 11.6783 81.6439 11.909 81.195 12.3704C80.7585 12.8193 80.5403 13.4428 80.5403 14.2409C80.5403 15.0389 80.7585 15.6749 81.195 16.1488C81.6439 16.6101 82.1863 16.8408 82.8223 16.8408C83.4582 16.8408 83.9944 16.6101 84.4309 16.1488C84.8798 15.6874 85.1043 15.0576 85.1043 14.2596Z" fill="#543A14"/>
<path d="M96.9951 19.4782L93.8153 15.1013V19.4782H90.6168V5.63666H93.8153V13.2869L96.9764 9.04093H100.923L96.5836 14.2783L100.961 19.4782H96.9951Z" fill="#543A14"/>
</svg>
