<svg width="38" height="40" viewBox="0 0 38 40" fill="none" xmlns="http://www.w3.org/2000/svg">
<path d="M10.7002 8.4948L10.8391 8.70269L11.047 8.56384L13.4286 6.97306L13.8428 7.59309L11.4611 9.18386L11.2532 9.32272L11.3921 9.53061L12.0839 10.5664L12.2228 10.7743L12.4307 10.6355L14.8123 9.04468L15.2265 9.66471L12.8448 11.2555L12.6369 11.3943L12.7758 11.6022L13.4676 12.638L13.6065 12.8459L13.8144 12.7071L16.196 11.1163L16.6102 11.7363L14.2285 13.3271L14.0206 13.466L14.1595 13.6739L15.7503 16.0555L15.1302 16.4696L13.5395 14.088L13.4006 13.8801L13.1927 14.019L12.1569 14.7108L11.949 14.8497L12.0879 15.0576L13.6787 17.4392L13.0586 17.8533L11.4679 15.4717L11.329 15.2638L11.1211 15.4027L10.0853 16.0945L9.8774 16.2334L10.0163 16.4413L11.607 18.8229L10.987 19.237L9.39623 16.8554L9.25737 16.6475L9.04948 16.7864L6.66785 18.3772L6.25371 17.7571L8.63534 16.1663L8.84324 16.0275L8.70438 15.8196L8.01252 14.7838L7.87367 14.5759L7.66578 14.7148L5.28414 16.3055L4.87 15.6855L7.25164 14.0947L7.45953 13.9559L7.32067 13.748L6.62882 12.7122L6.48996 12.5043L6.28207 12.6431L3.90043 14.2339L3.48629 13.6139L5.86793 12.0231L6.07582 11.8842L5.93696 11.6764L4.34619 9.29472L4.96621 8.88058L6.55699 11.2622L6.69585 11.4701L6.90374 11.3313L7.93955 10.6394L8.14744 10.5005L8.00858 10.2926L6.41781 7.91101L7.03784 7.49687L8.62861 9.87851L8.76747 10.0864L8.97536 9.94754L10.0112 9.25569L10.2191 9.11683L10.0802 8.90894L8.48943 6.52731L9.10946 6.11317L10.7002 8.4948Z" fill="#F0BB78" stroke="#543A14" stroke-width="0.5"/>
<path d="M8.18856 18.411L4.03744 12.1961C3.73361 11.7413 3.85748 11.1191 4.31236 10.8152L10.5272 6.66411C10.9821 6.36028 11.6043 6.48415 11.9081 6.93903L16.0593 13.1539C16.3631 13.6088 16.2392 14.231 15.7843 14.5348L9.56948 18.6859C9.1146 18.9898 8.49239 18.8659 8.18856 18.411Z" fill="#F0BB78" stroke="#543A14" stroke-width="0.5"/>
<path d="M12.9327 13.0692L9.30737 15.4907C9.13734 15.6042 8.90386 15.5578 8.79029 15.3877L7.06065 12.7982C6.94708 12.6282 6.99357 12.3947 7.1636 12.2811L10.7889 9.85963C10.959 9.74606 11.1924 9.79255 11.306 9.96258L13.0357 12.5521C13.1492 12.7221 13.1027 12.9556 12.9327 13.0692Z" fill="#F0BB78" stroke="#543A14" stroke-width="0.5"/>
<path d="M23.6028 8.21498L23.8521 8.19653L25.4929 8.0751L25.5738 8.06423C25.7098 8.03631 25.8312 7.9602 25.9157 7.84979C26.0014 7.73766 26.0431 7.59796 26.0327 7.45717C26.0327 7.45716 26.0327 7.45715 26.0327 7.45714L25.7283 3.34394L25.7175 3.26373C25.696 3.15851 25.6456 3.06131 25.5719 2.98314C25.4967 2.90343 25.4003 2.84682 25.2941 2.81992L20.2348 1.53949L20.161 1.52564L20.0948 1.52063L20.0301 1.5231L19.9774 1.53092L19.9123 1.54698L19.8529 1.5695L19.7947 1.5996L19.7377 1.63683C19.7077 1.66032 19.6786 1.68717 19.6506 1.7177L19.6119 1.76989L19.5757 1.82796L19.5518 1.88088L19.5311 1.9414L19.5149 2.02285L19.51 2.08808L19.5167 2.27244L19.517 2.28071L19.5169 2.28071C19.5185 2.77448 19.3281 3.24954 18.986 3.60554C18.6438 3.96153 18.1767 4.17058 17.6832 4.18852C17.1898 4.20646 16.7087 4.03189 16.3416 3.70168C15.9746 3.3716 15.7503 2.91185 15.7159 2.41948M23.6028 8.21498L15.9652 2.40158M23.6028 8.21498L23.6212 8.4643M23.6028 8.21498L23.6212 8.4643M15.7159 2.41948C15.7159 2.41929 15.7159 2.4191 15.7159 2.41891L15.9652 2.40158M15.7159 2.41948C15.7159 2.41965 15.7159 2.41981 15.7159 2.41997L15.9652 2.40158M15.7159 2.41948C15.7091 2.32857 15.6809 2.24056 15.6335 2.16268C15.586 2.08467 15.5206 2.01905 15.4428 1.97124C15.365 1.92343 15.2769 1.8948 15.1859 1.88771C15.0948 1.88062 15.0034 1.89526 14.9191 1.93044M15.9652 2.40158C15.9556 2.27099 15.9151 2.14456 15.847 2.0327C15.7789 1.92085 15.6852 1.82677 15.5737 1.75823C15.4621 1.68968 15.3358 1.64864 15.2053 1.63846C15.0747 1.62829 14.9436 1.64929 14.8228 1.69973M14.9191 1.93044L14.9191 1.93042L14.8228 1.69973M14.9191 1.93044L10.1028 3.94192M14.9191 1.93044L14.8228 1.69973M14.8228 1.69973L10.1028 3.94192M10.1028 3.94192L10.1092 3.93879L9.99987 3.71398L10.0962 3.94467L10.1028 3.94192ZM10.1028 3.94192L10.0301 3.9773M10.1028 3.94192L9.91348 3.75601M10.0301 3.9773C10.032 3.97619 10.0339 3.97508 10.0359 3.97398L9.91348 3.75601M10.0301 3.9773L10.0228 3.98082L9.91348 3.75601M10.0301 3.9773C9.93715 4.03092 9.861 4.10943 9.81024 4.20405C9.75842 4.30063 9.73521 4.40998 9.74334 4.51929L9.74335 4.51937L10.0478 8.63267M9.91348 3.75601C9.77647 3.83296 9.66423 3.94738 9.58994 4.08585C9.51565 4.22433 9.48238 4.38111 9.49403 4.53782L9.79899 8.65858M10.0478 8.63267L10.0468 8.62527L9.79899 8.65858M10.0478 8.63267L10.0586 8.7135M10.0478 8.63267L10.0483 8.64012L9.79899 8.65858M9.79899 8.65858L9.8119 8.75457M10.0586 8.7135C10.0582 8.71136 10.0578 8.70922 10.0573 8.70708L9.8119 8.75457M10.0586 8.7135L10.0597 8.72127L9.8119 8.75457M10.0586 8.7135L9.8119 8.75457M23.6212 8.4643L24.0482 14.2334L24.0482 14.2334M23.6212 8.4643L24.0482 14.2334M24.0482 14.2334C24.0744 14.5864 23.9663 14.9362 23.7454 15.2127C23.5256 15.488 23.2104 15.6704 22.8624 15.7239L22.7486 15.7362L14.5112 16.3458L14.5111 16.3458M24.0482 14.2334L14.5111 16.3458M14.5111 16.3458C14.1582 16.372 13.8084 16.2639 13.5318 16.0431M14.5111 16.3458L13.5318 16.0431M13.5318 16.0431C13.2566 15.8233 13.0741 15.508 13.0206 15.16L13.5318 16.0431ZM10.6841 9.42173L10.6657 9.17241C10.6657 9.17241 10.6657 9.17241 10.6657 9.17242L10.6841 9.42173ZM13.0084 15.0462L13.008 15.0421L12.7594 15.0688L13.0087 15.0504L13.0084 15.0462Z" fill="#F0BB78" stroke="#543A14" stroke-width="0.5"/>
<path d="M25.7593 12.7846C26.0272 12.922 26.3115 12.9464 26.5974 12.8548C26.8841 12.7631 27.1013 12.5771 27.2388 12.3082C27.3761 12.04 27.4007 11.7556 27.3089 11.47C27.2171 11.1843 27.0314 10.9675 26.7637 10.8289C26.4948 10.6897 26.2093 10.6653 25.9227 10.7593C25.6383 10.8525 25.4217 11.0371 25.2835 11.3031C25.1443 11.5709 25.1205 11.8561 25.2129 12.1436C25.3052 12.4308 25.4905 12.6486 25.7593 12.7846ZM25.7593 12.7846C25.7591 12.7845 25.7588 12.7844 25.7586 12.7843L25.8728 12.5619L25.7593 12.7846ZM28.7812 14.3366C29.0491 14.4739 29.3334 14.4983 29.6194 14.4067C29.906 14.315 30.1233 14.129 30.2608 13.8601C30.398 13.5919 30.4226 13.3075 30.3308 13.0219C30.239 12.7363 30.0533 12.5194 29.7856 12.3808C29.5168 12.2417 29.2313 12.2172 28.9447 12.3112C28.6602 12.4044 28.4436 12.589 28.3054 12.8551C28.1663 13.1228 28.1425 13.4081 28.2349 13.6955C28.3272 13.9827 28.5125 14.2005 28.7812 14.3366ZM28.7812 14.3366C28.781 14.3364 28.7808 14.3363 28.7805 14.3362L28.8947 14.1138L28.7812 14.3366ZM23.0596 12.3901L23.1738 12.1678L22.9514 12.0535C22.59 11.8679 22.3537 11.5899 22.2313 11.2091C22.1089 10.8283 22.139 10.4646 22.3246 10.1032C22.5102 9.74181 22.7882 9.50547 23.169 9.38306C23.5499 9.26066 23.9135 9.29078 24.2749 9.47638L24.4973 9.59059L24.6115 9.3682L25.1288 8.36089C25.2405 8.14339 25.4081 8.00129 25.6441 7.92568C25.8803 7.84998 26.0996 7.86786 26.3169 7.97912L27.8278 8.75502L28.0502 8.86923L28.1644 8.64684C28.35 8.28543 28.628 8.04909 29.0088 7.92669C29.3897 7.80429 29.7533 7.83441 30.1147 8.02001C30.4761 8.20561 30.7125 8.48361 30.8349 8.86445C30.9573 9.24529 30.9272 9.60894 30.7416 9.97034L30.6274 10.1927L30.8497 10.3069L32.3607 11.0829C32.5782 11.1946 32.7206 11.3624 32.7965 11.5986C32.8724 11.8349 32.8544 12.0538 32.7427 12.2706L32.7425 12.2709L32.2252 13.2782L32.111 13.5006L32.3334 13.6148C32.6948 13.8004 32.9312 14.0784 33.0536 14.4593C33.176 14.8401 33.1458 15.2038 32.9602 15.5652C32.7746 15.9266 32.4966 16.1629 32.1158 16.2853C31.735 16.4077 31.3713 16.3776 31.0099 16.192L30.7875 16.0778L30.6733 16.3002L29.6387 18.3148C29.5269 18.5324 29.3592 18.6748 29.1233 18.7509C28.8876 18.8269 28.6686 18.8089 28.451 18.6968L28.4507 18.6966L22.4068 15.5928C22.1892 15.481 22.047 15.3135 21.9713 15.0778C21.8956 14.8422 21.9134 14.6229 22.025 14.4047L23.0596 12.3901ZM24.1121 14.2037L23.9979 14.426L24.2203 14.5402L28.2496 16.6095L28.472 16.7237L28.5862 16.5013L29.1035 15.494L29.2177 15.2716L28.9953 15.1574L24.966 13.0882L24.7436 12.9739L24.6294 13.1963L24.1121 14.2037Z" fill="#F0BB78" stroke="#543A14" stroke-width="0.5"/>
<path d="M24.8584 26.2134C23.8716 26.2134 22.9433 25.6934 22.4411 24.8613L18.6867 18.702L14.9382 24.8613C14.4302 25.6991 13.5019 26.2192 12.5151 26.2192C12.2523 26.2192 11.9896 26.1845 11.7385 26.1094L3.73933 23.8444V34.1293C3.73933 34.9786 4.32321 35.7182 5.15232 35.9204L17.7759 39.0463C18.3714 39.1908 18.9962 39.1908 19.5859 39.0463L32.2212 35.9204C33.0503 35.7124 33.6342 34.9728 33.6342 34.1293V23.8444L25.635 26.1036C25.3839 26.1787 25.1211 26.2134 24.8584 26.2134ZM37.2718 19.7304L34.2648 13.7907C34.0837 13.4324 33.6925 13.2244 33.2897 13.2764L18.6867 15.1196L24.041 23.908C24.2628 24.272 24.7066 24.4453 25.1211 24.3297L36.6762 21.0652C37.2542 20.8976 37.5345 20.262 37.2718 19.7304ZM3.10873 13.7907L0.101732 19.7304C-0.166855 20.262 0.119248 20.8976 0.691454 21.0594L12.2465 24.324C12.6611 24.4395 13.1048 24.2662 13.3267 23.9022L18.6867 15.1196L4.07798 13.2764C3.6751 13.2302 3.28974 13.4324 3.10873 13.7907Z" fill="#543A14"/>
<path d="M23.0459 8.33104L23.0459 8.33134L21.6582 16.1545C21.6221 16.3577 21.5229 16.5133 21.3514 16.6333C21.1802 16.7532 21.0003 16.7928 20.7969 16.7565L20.7966 16.7565L14.9293 15.7157C14.7261 15.6796 14.5707 15.5805 14.451 15.4092C14.3314 15.2379 14.2915 15.0577 14.3273 14.854L15.715 7.03096C15.751 6.82792 15.8502 6.67263 16.0218 6.55296C16.1937 6.43311 16.3739 6.39335 16.5767 6.42905L22.444 7.4698C22.647 7.50582 22.8025 7.60508 22.9226 7.77688L23.1275 7.6337L22.9226 7.77688C23.0426 7.94867 23.0821 8.12855 23.0459 8.33104ZM23.292 8.37501L21.9043 16.1982C21.8566 16.4671 21.7201 16.6804 21.4948 16.8382C21.2694 16.9959 21.0222 17.0507 20.753 17.0026L23.292 8.37501ZM18.0382 10.9734L17.9611 11.4082L18.3736 11.2506L19.5859 10.7875L20.565 11.6393L20.8982 11.9291L20.9753 11.4944L21.5824 8.07174L21.6261 7.82559L21.3799 7.78192L18.9352 7.34826L18.689 7.3046L18.6454 7.55076L18.0382 10.9734Z" fill="#F0BB78" stroke="#543A14" stroke-width="0.5"/>
</svg>
