<svg width="80" height="81" viewBox="0 0 80 81" fill="none" xmlns="http://www.w3.org/2000/svg">
<circle cx="40" cy="40.7971" r="40" fill="#F0BB78"/>
<path d="M33.795 65.797C32.5701 61.8025 30.7223 58.8246 28.2514 56.8634C24.545 53.9215 18.656 55.7499 16.4807 52.7155C14.3054 49.681 18.0048 44.1008 19.3029 40.8081C20.6011 37.5156 14.3272 36.3514 15.0597 35.4166C15.548 34.7935 18.7184 32.9953 24.5709 30.022C26.2338 20.5387 32.376 15.7971 42.9978 15.7971C58.9301 15.7971 65 29.3045 65 37.8956C65 46.4869 57.6501 55.7423 47.1801 57.7379C46.2439 59.1014 47.5942 61.7878 51.231 65.797" fill="white"/>
<path fill-rule="evenodd" clip-rule="evenodd" d="M34.3746 28.9219C33.558 32.0898 33.801 34.3141 35.1036 35.595C36.4062 36.876 38.6264 37.7136 41.764 38.108C41.0521 42.1939 41.9201 44.1108 44.3677 43.8585C46.8155 43.6063 48.2861 42.5893 48.7798 40.8073C52.6052 41.8824 54.6785 40.9826 54.9996 38.108C55.4815 33.796 53.1562 30.3563 52.203 30.3563C51.2496 30.3563 48.7798 30.2403 48.7798 28.9219C48.7798 27.6034 45.8948 26.8585 43.2911 26.8585C40.6874 26.8585 42.2543 25.1034 38.679 25.7969C36.2953 26.2591 34.8606 27.3008 34.3746 28.9219Z" stroke="#F0BB78" stroke-width="2" stroke-linejoin="round"/>
<path d="M48.0466 42.2773C47.2118 43.1773 45.1098 44.7724 44.3753 45.7971C42.5391 48.3589 41.0498 49.9188 40.7239 51.5572" stroke="#F0BB78" stroke-width="2" stroke-linecap="round"/>
</svg>
